<svg xmlns="http://www.w3.org/2000/svg" version="1.1" xmlns:xlink="http://www.w3.org/1999/xlink" xmlns:svgjs="http://svgjs.dev/svgjs" width="1000" height="219" viewBox="0 0 1000 219"><g transform="matrix(1,0,0,1,-0.6060606060606801,-0.29998759975201494)"><svg viewBox="0 0 396 87" data-background-color="#ffffff" preserveAspectRatio="xMidYMid meet" height="219" width="1000" xmlns="http://www.w3.org/2000/svg" xmlns:xlink="http://www.w3.org/1999/xlink"><g id="tight-bounds" transform="matrix(1,0,0,1,0.24000000000003752,0.11917315606586953)"><svg viewBox="0 0 395.5199999999999 86.76165368786828" height="86.76165368786828" width="395.5199999999999"><g><svg viewBox="0 0 544.7709323399464 119.50148404858301" height="86.76165368786828" width="395.5199999999999"><g transform="matrix(1,0,0,1,149.2509323399464,30.92742218623483)"><svg viewBox="0 0 395.52 57.64663967611335" height="57.64663967611335" width="395.52"><g id="textblocktransform"><svg viewBox="0 0 395.52 57.64663967611335" height="57.64663967611335" width="395.52" id="textblock"><g><svg viewBox="0 0 395.52 57.64663967611335" height="57.64663967611335" width="395.52"><g transform="matrix(1,0,0,1,0,0)"><svg width="395.52" viewBox="1.7 -31.8 222.28 32.400000000000006" height="57.64663967611335" data-palette-color="#083a5e"><path d="M10.4-4.25Q10.4-2.65 10.78-1.93 11.15-1.2 12.23-0.9 13.3-0.6 15.6-0.6L15.6-0.6Q15.75-0.6 15.75-0.3 15.75 0 15.6 0L15.6 0Q13.55 0 12.4-0.05L12.4-0.05 8.05-0.1 4.45-0.05Q3.5 0 1.85 0L1.85 0Q1.7 0 1.7-0.3 1.7-0.6 1.85-0.6L1.85-0.6Q3.55-0.6 4.3-0.85 5.05-1.1 5.33-1.8 5.6-2.5 5.6-4.05L5.6-4.05 5.6-27.2Q5.6-28.7 5.33-29.4 5.05-30.1 4.28-30.38 3.5-30.65 1.85-30.65L1.85-30.65Q1.7-30.65 1.7-30.95 1.7-31.25 1.85-31.25L1.85-31.25 4.45-31.2Q6.65-31.1 8-31.1L8-31.1Q9.15-31.1 10.8-31.25L10.8-31.25Q11.4-31.3 12.43-31.35 13.45-31.4 14.85-31.4L14.85-31.4Q19.8-31.4 22.68-29.3 25.55-27.2 25.55-22.85L25.55-22.85Q25.55-19.7 23.93-17.5 22.3-15.3 19.78-14.2 17.25-13.1 14.6-13.1L14.6-13.1Q13.2-13.1 12.25-13.35L12.25-13.35Q12.1-13.35 12.1-13.6L12.1-13.6Q12.1-13.75 12.18-13.9 12.25-14.05 12.35-14L12.35-14Q13.15-13.8 14.1-13.8L14.1-13.8Q16.7-13.8 18.5-15.95 20.3-18.1 20.3-22.1L20.3-22.1Q20.3-26.05 18.45-28.23 16.6-30.4 13.35-30.4L13.35-30.4Q12.15-30.4 11.53-30.15 10.9-29.9 10.65-29.23 10.4-28.55 10.4-27.1L10.4-27.1 10.4-4.25ZM37.2-4.05Q37.2-2.55 37.45-1.83 37.7-1.1 38.4-0.85 39.1-0.6 40.6-0.6L40.6-0.6Q40.7-0.6 40.7-0.3 40.7 0 40.6 0L40.6 0Q39.1 0 38.25-0.05L38.25-0.05 34.95-0.1 31.85-0.05Q30.95 0 29.4 0L29.4 0Q29.3 0 29.3-0.3 29.3-0.6 29.4-0.6L29.4-0.6Q30.95-0.6 31.65-0.85 32.35-1.1 32.6-1.83 32.85-2.55 32.85-4.05L32.85-4.05 32.85-19.35Q32.85-20.85 32.6-21.55 32.35-22.25 31.62-22.53 30.9-22.8 29.4-22.8L29.4-22.8Q29.3-22.8 29.3-23.1 29.3-23.4 29.4-23.4L29.4-23.4 31.85-23.35Q33.75-23.25 34.95-23.25L34.95-23.25Q36.3-23.25 38.3-23.35L38.3-23.35 40.6-23.4Q40.7-23.4 40.7-23.1 40.7-22.8 40.6-22.8L40.6-22.8Q39.15-22.8 38.42-22.5 37.7-22.2 37.45-21.48 37.2-20.75 37.2-19.25L37.2-19.25 37.2-4.05ZM57.95-24Q59.8-24 61.97-23.6 64.15-23.2 65.55-22.55L65.55-22.55Q65.9-22.4 66-22.23 66.09-22.05 66.09-21.7L66.09-21.7 66.45-16.55Q66.45-16.4 66.17-16.35 65.9-16.3 65.84-16.5L65.84-16.5Q64.3-19.8 62.17-21.4 60.05-23 57.2-23L57.2-23Q53.5-23 51.37-20.1 49.25-17.2 49.25-12.55L49.25-12.55Q49.25-9.45 50.22-6.65 51.2-3.85 53.27-2.1 55.35-0.35 58.4-0.35L58.4-0.35Q61.15-0.35 63.02-1.95 64.9-3.55 66.34-7L66.34-7Q66.4-7.2 66.65-7.15 66.9-7.1 66.9-6.95L66.9-6.95 66.4-1.65Q66.34-1.25 66.25-1.1 66.15-0.95 65.7-0.75L65.7-0.75Q61.85 0.6 57.7 0.6L57.7 0.6Q52.95 0.6 49.9-1.3 46.85-3.2 45.47-6.05 44.1-8.9 44.1-11.8L44.1-11.8Q44.1-15.2 45.92-18 47.75-20.8 50.92-22.4 54.1-24 57.95-24L57.95-24ZM77.34-25.95Q77.34-24.1 78.27-22.68 79.19-21.25 80.57-20.2 81.94-19.15 84.29-17.7L84.29-17.7Q86.84-16.1 88.32-14.95 89.79-13.8 90.82-12.13 91.84-10.45 91.84-8.2L91.84-8.2Q91.84-5.65 90.52-3.65 89.19-1.65 86.77-0.53 84.34 0.6 81.24 0.6L81.24 0.6Q79.14 0.6 76.92 0.05 74.69-0.5 73.54-1.3L73.54-1.3Q73.09-1.6 73.04-2.25L73.04-2.25 72.74-9.85 72.74-9.9Q72.74-10.1 72.99-10.13 73.24-10.15 73.29-9.95L73.29-9.95Q74.94-5.8 77.07-3.15 79.19-0.5 82.49-0.5L82.49-0.5Q84.64-0.5 86.09-1.68 87.54-2.85 87.54-5.6L87.54-5.6Q87.54-7.8 86.57-9.45 85.59-11.1 84.17-12.2 82.74-13.3 80.29-14.9L80.29-14.9Q77.89-16.45 76.54-17.53 75.19-18.6 74.24-20.18 73.29-21.75 73.29-23.85L73.29-23.85Q73.29-26.45 74.74-28.25 76.19-30.05 78.52-30.93 80.84-31.8 83.39-31.8L83.39-31.8Q85.09-31.8 86.79-31.48 88.49-31.15 89.64-30.65L89.64-30.65Q90.09-30.5 90.24-30.28 90.39-30.05 90.39-29.7L90.39-29.7 90.54-22.9Q90.54-22.75 90.27-22.68 89.99-22.6 89.94-22.8L89.94-22.8Q88.94-25.85 87.27-28.33 85.59-30.8 82.24-30.8L82.24-30.8Q79.99-30.8 78.67-29.5 77.34-28.2 77.34-25.95L77.34-25.95ZM123.09-22.8Q121.79-22.8 121.17-22.53 120.54-22.25 120.32-21.55 120.09-20.85 120.09-19.35L120.09-19.35 120.09-4.05Q120.09-2.55 120.32-1.83 120.54-1.1 121.14-0.85 121.74-0.6 122.99-0.6L122.99-0.6Q123.14-0.6 123.14-0.3 123.14 0 122.99 0L122.99 0 119.74-0.05 116.69 0Q116.09 0 115.92-0.15 115.74-0.3 115.74-0.95L115.74-0.95 115.74-3.75Q113.69-1.5 111.44-0.45 109.19 0.6 106.64 0.6L106.64 0.6Q103.14 0.6 100.82-1.25 98.49-3.1 98.49-6.8L98.49-6.8 98.49-19.35Q98.49-20.85 98.32-21.55 98.14-22.25 97.67-22.53 97.19-22.8 96.14-22.8L96.14-22.8Q96.04-22.8 96.04-23.1 96.04-23.4 96.14-23.4L96.14-23.4 98.09-23.35Q99.79-23.25 100.69-23.25L100.69-23.25Q101.84-23.25 103.74-23.35L103.74-23.35 105.79-23.4Q105.89-23.4 105.89-23.1 105.89-22.8 105.79-22.8L105.79-22.8Q104.49-22.8 103.87-22.5 103.24-22.2 103.02-21.48 102.79-20.75 102.79-19.25L102.79-19.25 102.79-8.15Q102.79-4.3 104.32-2.63 105.84-0.95 108.44-0.95L108.44-0.95Q112.49-0.95 115.74-5.15L115.74-5.15 115.74-19.25Q115.74-20.75 115.54-21.48 115.34-22.2 114.74-22.5 114.14-22.8 112.89-22.8L112.89-22.8Q112.74-22.8 112.74-23.1 112.74-23.4 112.89-23.4L112.89-23.4 115.14-23.35Q117.04-23.25 118.09-23.25L118.09-23.25Q119.14-23.25 120.84-23.35L120.84-23.35 123.09-23.4Q123.24-23.4 123.24-23.1 123.24-22.8 123.09-22.8L123.09-22.8ZM152.64-0.6Q152.79-0.6 152.79-0.3 152.79 0 152.64 0L152.64 0 145.24 0Q144.44 0 142.36-3.03 140.29-6.05 137.54-11.25L137.54-11.25Q136.49-11.1 135.39-11.1L135.39-11.1Q134.59-11.1 134.19-11.15L134.19-11.15 134.19-4.05Q134.19-2.55 134.41-1.83 134.64-1.1 135.31-0.85 135.99-0.6 137.49-0.6L137.49-0.6Q137.59-0.6 137.59-0.3 137.59 0 137.49 0L137.49 0Q136.04 0 135.19-0.05L135.19-0.05 131.89-0.1 128.79-0.05Q127.89 0 126.34 0L126.34 0Q126.24 0 126.24-0.3 126.24-0.6 126.34-0.6L126.34-0.6Q127.84-0.6 128.54-0.85 129.24-1.1 129.49-1.83 129.74-2.55 129.74-4.05L129.74-4.05 129.74-19.35Q129.74-20.85 129.49-21.55 129.24-22.25 128.54-22.53 127.84-22.8 126.39-22.8L126.39-22.8Q126.29-22.8 126.29-23.1 126.29-23.4 126.39-23.4L126.39-23.4 128.84-23.35Q130.74-23.25 131.89-23.25L131.89-23.25Q132.84-23.25 133.64-23.3 134.44-23.35 135.04-23.4L135.04-23.4Q136.69-23.55 138.04-23.55L138.04-23.55Q141.74-23.55 143.66-22.3 145.59-21.05 145.59-18.7L145.59-18.7Q145.59-16.75 144.39-15.05 143.19-13.35 141.09-12.35L141.09-12.35Q143.79-7.8 145.74-5.28 147.69-2.75 149.29-1.68 150.89-0.6 152.64-0.6L152.64-0.6ZM134.19-12.05Q134.64-12 135.74-12L135.74-12Q138.69-12 139.84-13.35 140.99-14.7 140.99-17.35L140.99-17.35Q140.99-22.65 136.84-22.65L136.84-22.65Q135.19-22.65 134.69-21.98 134.19-21.3 134.19-19.25L134.19-19.25 134.19-12.05ZM172.04-2.7L172.09-2.7Q172.24-2.7 172.36-2.53 172.49-2.35 172.39-2.2L172.39-2.2Q168.84 0.6 164.64 0.6L164.64 0.6Q160.89 0.6 158.21-1.07 155.54-2.75 154.19-5.45 152.84-8.15 152.84-11.3L152.84-11.3Q152.84-14.75 154.51-17.63 156.19-20.5 159.04-22.2 161.89-23.9 165.24-23.9L165.24-23.9Q168.84-23.9 170.71-21.98 172.59-20.05 172.59-16.9L172.59-16.9Q172.59-16.3 172.46-16.05 172.34-15.8 171.99-15.8L171.99-15.8 157.64-15.75Q157.49-14.65 157.49-13.3L157.49-13.3Q157.49-7.85 159.96-4.53 162.44-1.2 166.94-1.2L166.94-1.2Q168.24-1.2 169.59-1.58 170.94-1.95 172.04-2.7L172.04-2.7ZM163.59-22.75Q161.44-22.75 159.91-21.15 158.39-19.55 157.79-16.7L157.79-16.7 167.84-16.85Q167.84-19.7 166.76-21.23 165.69-22.75 163.59-22.75L163.59-22.75ZM209.18-0.6Q209.43-0.6 209.43-0.3 209.43 0 209.18 0L209.18 0Q208.23 0 206.13-0.1L206.13-0.1Q204.03-0.2 203.08-0.2L203.08-0.2Q201.83-0.2 200.13-0.1L200.13-0.1Q198.43 0 197.48 0L197.48 0Q197.28 0 197.28-0.3 197.28-0.6 197.48-0.6L197.48-0.6Q198.93-0.6 199.61-0.93 200.28-1.25 200.28-2L200.28-2Q200.28-2.75 199.43-4.55L199.43-4.55 194.03-15.5 184.98-15.5 181.13-6.85Q180.48-5.35 180.48-4.15L180.48-4.15Q180.48-2.4 181.73-1.5 182.98-0.6 185.23-0.6L185.23-0.6Q185.48-0.6 185.48-0.3 185.48 0 185.23 0L185.23 0Q184.33 0 182.63-0.1L182.63-0.1Q180.73-0.2 179.33-0.2L179.33-0.2Q177.98-0.2 176.18-0.1L176.18-0.1Q174.58 0 173.53 0L173.53 0Q173.28 0 173.28-0.3 173.28-0.6 173.53-0.6L173.53-0.6Q174.93-0.6 175.88-1.15 176.83-1.7 177.73-3.13 178.63-4.55 179.88-7.35L179.88-7.35 190.63-31.55Q190.73-31.7 191.08-31.7L191.08-31.7Q191.43-31.7 191.48-31.55L191.48-31.55 203.73-6.85Q205.48-3.25 206.66-1.93 207.83-0.6 209.18-0.6L209.18-0.6ZM189.28-25.15L185.53-16.75 193.43-16.75 189.28-25.15ZM220.08-4.05Q220.08-2.5 220.33-1.8 220.58-1.1 221.36-0.85 222.13-0.6 223.83-0.6L223.83-0.6Q223.98-0.6 223.98-0.3 223.98 0 223.83 0L223.83 0Q222.23 0 221.28-0.05L221.28-0.05 217.58-0.1 213.98-0.05Q213.03 0 211.38 0L211.38 0Q211.23 0 211.23-0.3 211.23-0.6 211.38-0.6L211.38-0.6Q213.08-0.6 213.86-0.85 214.63-1.1 214.93-1.83 215.23-2.55 215.23-4.05L215.23-4.05 215.23-27.2Q215.23-28.7 214.93-29.4 214.63-30.1 213.86-30.38 213.08-30.65 211.38-30.65L211.38-30.65Q211.23-30.65 211.23-30.95 211.23-31.25 211.38-31.25L211.38-31.25 213.98-31.2Q216.18-31.1 217.58-31.1L217.58-31.1Q219.13-31.1 221.33-31.2L221.33-31.2 223.83-31.25Q223.98-31.25 223.98-30.95 223.98-30.65 223.83-30.65L223.83-30.65Q222.18-30.65 221.41-30.35 220.63-30.05 220.36-29.33 220.08-28.6 220.08-27.1L220.08-27.1 220.08-4.05Z" opacity="1" transform="matrix(1,0,0,1,0,0)" fill="#083a5e" class="wordmark-text-0" data-fill-palette-color="primary" id="text-0"></path></svg></g></svg></g></svg></g></svg></g><g><svg viewBox="0 0 135.64194423176826 119.50148404858301" height="119.50148404858301" width="135.64194423176826"><g><svg xmlns="http://www.w3.org/2000/svg" xmlns:xlink="http://www.w3.org/1999/xlink" version="1.1" x="0" y="0" viewBox="6.3 11.5 87.4 77" style="enable-background:new 0 0 100 100;" xml:space="preserve" height="119.50148404858301" width="135.64194423176826" class="icon-icon-0" data-fill-palette-color="accent" id="icon-0"><path d="M72.3 12.3L72.3 12.3 72.3 12.3l-0.4-0.8H28.2L6.3 50l21.8 38.5h43.7L93.7 50 72.3 12.3zM33.3 25.3L9.9 47.7l18.6-32.8L33.3 25.3zM70.7 14.8l6.4 35.7L36.9 25.8 70.7 14.8zM35.5 27.3l41 25.2-41 23.3V27.3zM77 54.5l-7.2 30.8-32.6-8.1L77 54.5zM33.5 75L9.9 50.5l23.6-22.7V75zM33.2 77.6l-4.6 7.7L11.5 55.1 33.2 77.6zM35 78.6l31.4 7.9H30.2L35 78.6zM79.3 53.3l11.6-2.5L72.1 84 79.3 53.3zM90.7 48.9l-11.4 2.5-5.9-33.1L90.7 48.9zM35 24.3l-5-10.8h38.2L35 24.3z" fill="#33b89f" data-fill-palette-color="accent"></path></svg></g></svg></g></svg></g><defs></defs></svg><rect width="395.5199999999999" height="86.76165368786828" fill="none" stroke="none" visibility="hidden"></rect></g></svg></g></svg>